<svg xmlns="http://www.w3.org/2000/svg" viewBox="0 0 400 400" width="400" height="400">
  <defs>
    <filter id="logo-shadow" x="-10%" y="-10%" width="130%" height="130%">
      <feDropShadow dx="0" dy="4" stdDeviation="6" flood-color="#00000020"/>
    </filter>
    <radialGradient id="logo-bg" cx="50%" cy="35%" r="65%">
      <stop offset="0%" stop-color="#A8E0FF"/>
      <stop offset="100%" stop-color="#6BB8E8"/>
    </radialGradient>
    <!-- Polished BlooBear pastel palette -->
    <radialGradient id="logo-body" cx="42%" cy="32%" r="80%">
      <stop offset="0%" stop-color="#E8F2FF"/>
      <stop offset="30%" stop-color="#C8E0F5"/>
      <stop offset="65%" stop-color="#A5C8E5"/>
      <stop offset="90%" stop-color="#86B0D2"/>
      <stop offset="100%" stop-color="#7AA5C7"/>
    </radialGradient>
    <radialGradient id="logo-sheen" cx="35%" cy="22%" r="55%">
      <stop offset="0%" stop-color="white" stop-opacity="0.4"/>
      <stop offset="55%" stop-color="white" stop-opacity="0.08"/>
      <stop offset="100%" stop-color="white" stop-opacity="0"/>
    </radialGradient>
    <radialGradient id="logo-belly" cx="50%" cy="40%" r="70%">
      <stop offset="0%" stop-color="#FFFAEC"/>
      <stop offset="50%" stop-color="#FCEFD0"/>
      <stop offset="90%" stop-color="#F5E0B0"/>
      <stop offset="100%" stop-color="#EBCF95"/>
    </radialGradient>
    <radialGradient id="logo-cheek" cx="50%" cy="50%" r="50%">
      <stop offset="0%" stop-color="#FFB3C1" stop-opacity="0.85"/>
      <stop offset="60%" stop-color="#FFB3C1" stop-opacity="0.35"/>
      <stop offset="100%" stop-color="#FFB3C1" stop-opacity="0"/>
    </radialGradient>
    <radialGradient id="logo-iris" cx="50%" cy="50%" r="50%">
      <stop offset="0%" stop-color="#2A1A0A"/>
      <stop offset="55%" stop-color="#4A3220"/>
      <stop offset="100%" stop-color="#8A5F40"/>
    </radialGradient>
    <pattern id="logo-fur" x="0" y="0" width="6" height="6" patternUnits="userSpaceOnUse">
      <line x1="1" y1="0" x2="2.5" y2="4" stroke="#5C8DAE" stroke-width="0.7" opacity="0.55" stroke-linecap="round"/>
      <line x1="4" y1="1" x2="5.5" y2="5" stroke="#5C8DAE" stroke-width="0.7" opacity="0.55" stroke-linecap="round"/>
    </pattern>
  </defs>

  <!-- Background circle -->
  <circle cx="200" cy="200" r="190" fill="url(#logo-bg)" filter="url(#logo-shadow)"/>

  <!-- Polished BlooBear (centered, scaled to fit the logo) -->
  <g transform="translate(40, 30) scale(1)">

    <!-- Ears (teardrop shape with inner ear) -->
    <path d="M92,38 C72,38 65,55 70,72 C74,84 88,90 92,90 C96,90 110,84 114,72 C119,55 112,38 92,38 Z" fill="url(#logo-body)"/>
    <path d="M92,55 C82,55 78,65 81,75 C84,82 90,86 92,86 C94,86 100,82 103,75 C106,65 102,55 92,55 Z" fill="url(#logo-belly)"/>
    <ellipse cx="92" cy="74" rx="6" ry="8" fill="#A87530" opacity="0.45"/>

    <path d="M228,38 C208,38 201,55 206,72 C210,84 224,90 228,90 C232,90 246,84 250,72 C255,55 248,38 228,38 Z" fill="url(#logo-body)"/>
    <path d="M228,55 C218,55 214,65 217,75 C220,82 226,86 228,86 C230,86 236,82 239,75 C242,65 238,55 228,55 Z" fill="url(#logo-belly)"/>
    <ellipse cx="228" cy="74" rx="6" ry="8" fill="#A87530" opacity="0.45"/>

    <!-- Big round head -->
    <ellipse cx="160" cy="130" rx="92" ry="86" fill="url(#logo-body)"/>
    <ellipse cx="160" cy="130" rx="92" ry="86" fill="url(#logo-fur)" opacity="0.5"/>
    <ellipse cx="135" cy="95" rx="58" ry="40" fill="url(#logo-sheen)"/>
    <ellipse cx="125" cy="75" rx="28" ry="11" fill="white" opacity="0.32"/>

    <!-- Cheeks -->
    <circle cx="80" cy="155" r="22" fill="url(#logo-cheek)"/>
    <circle cx="240" cy="155" r="22" fill="url(#logo-cheek)"/>

    <!-- Muzzle -->
    <ellipse cx="160" cy="160" rx="42" ry="30" fill="url(#logo-belly)"/>
    <ellipse cx="155" cy="152" rx="22" ry="14" fill="white" opacity="0.3"/>

    <!-- Eyes — gradient iris with sparkles -->
    <ellipse cx="120" cy="130" rx="23" ry="27" fill="#3D2818" opacity="0.4"/>
    <ellipse cx="120" cy="130" rx="22" ry="26" fill="#FFFFFF"/>
    <circle cx="120" cy="135" r="18" fill="url(#logo-iris)"/>
    <circle cx="120" cy="136" r="6" fill="#0A0500"/>
    <ellipse cx="125" cy="127" rx="8" ry="6" fill="white"/>
    <circle cx="114" cy="143" r="3" fill="white" opacity="0.9"/>

    <ellipse cx="200" cy="130" rx="23" ry="27" fill="#3D2818" opacity="0.4"/>
    <ellipse cx="200" cy="130" rx="22" ry="26" fill="#FFFFFF"/>
    <circle cx="200" cy="135" r="18" fill="url(#logo-iris)"/>
    <circle cx="200" cy="136" r="6" fill="#0A0500"/>
    <ellipse cx="205" cy="127" rx="8" ry="6" fill="white"/>
    <circle cx="194" cy="143" r="3" fill="white" opacity="0.9"/>

    <!-- Nose -->
    <ellipse cx="160" cy="168" rx="7" ry="5" fill="#1A0F08"/>
    <ellipse cx="160" cy="167" rx="6" ry="4" fill="#3D2818"/>
    <ellipse cx="158" cy="165" rx="2.5" ry="1.5" fill="white" opacity="0.7"/>

    <!-- Smile -->
    <path d="M148,180 Q160,193 172,180" fill="none" stroke="#1A0F08" stroke-width="3.5" stroke-linecap="round"/>
  </g>

  <!-- "123" floating around the bear -->
  <text x="60" y="365" font-family="Fredoka One, Baloo 2, Arial Rounded MT Bold, sans-serif" font-size="56" font-weight="800" fill="#FFD54F" transform="rotate(-12, 60, 365)">1</text>
  <text x="180" y="380" font-family="Fredoka One, Baloo 2, Arial Rounded MT Bold, sans-serif" font-size="64" font-weight="800" fill="#FFFFFF">2</text>
  <text x="300" y="365" font-family="Fredoka One, Baloo 2, Arial Rounded MT Bold, sans-serif" font-size="56" font-weight="800" fill="#FF8A80" transform="rotate(12, 300, 365)">3</text>

  <!-- Small stars -->
  <polygon points="55,85 59,75 63,85 53,79 67,79" fill="#FFD54F"/>
  <polygon points="345,90 349,80 353,90 343,84 357,84" fill="#FFD54F"/>

  <!-- Plus / minus accents -->
  <text x="30" y="220" font-family="Arial Rounded MT Bold, sans-serif" font-size="32" font-weight="800" fill="#7BC587" opacity="0.85">+</text>
  <text x="350" y="265" font-family="Arial Rounded MT Bold, sans-serif" font-size="32" font-weight="800" fill="#B689CC" opacity="0.85">-</text>
</svg>
